<!-- Generator: Adobe Illustrator 18.1.1, SVG Export Plug-In  -->
<svg version="1.1"
     xmlns="http://www.w3.org/2000/svg" xmlns:xlink="http://www.w3.org/1999/xlink" xmlns:a="http://ns.adobe.com/AdobeSVGViewerExtensions/3.0/"
     x="0px" y="0px" width="583px" height="324px" viewBox="0 0 583 324" enable-background="new 0 0 583 324" xml:space="preserve">
<defs>
</defs>
<g>
    <g>
        <path fill="#8E267B" d="M216.8,34.7c37.9,0,15.9,0,53.8,0c4.2,0,77.2,0,81.5,0c1.4,0,2.6,0,3.7,0c1.8,0,4.4,0,8.2,0
            c11.1,0,12.7-1.6,12.7-12.3c0-3.2,0-6.5,0-9.7c0-11.1-1.5-12.6-12.4-12.6c-76.5,0-72.3,0-148.8,0c-10.7,0-12.3,1.5-12.3,11.9
            c0,3.2,0,6.5,0,9.7C203.4,33.5,204.6,34.7,216.8,34.7z"/>
        <path fill="#8E267B" d="M517.9,310.5L412.5,188.9L513.6,72c4.2-4.6,2.3-8.9-4.2-8.9h-25.5c-3.9,0-6.6,1.2-8.9,4.2l-93.9,111.6
            v-27.9c0-60.2-32.4-92.6-91.9-92.6s-91.9,32.4-91.9,92.6v80.3c0,60.2,32.4,92.6,91.9,92.6s91.9-32.4,91.9-92.6v-29.8l96.2,113.5
            c2.3,3.1,5,4.2,8.9,4.2h27.4C520.2,319.4,522.1,315.1,517.9,310.5z M346.4,227.1c0,44.8-18.5,66.4-57.1,66.4
            c-38.6,0-57.1-21.6-57.1-66.4v-71.8c0-44.8,18.5-66.4,57.1-66.4c38.6,0,57.1,21.6,57.1,66.4V227.1z"/>
    </g>
    <path fill="#8E267B" d="M84.1,63.1c61,0,91.9,29.7,91.9,88V231c0,58.7-30.9,88.4-91.9,88.4H7.3c-4.6,0-7.3-2.7-7.3-7.3V70.4
        c0-4.6,2.7-7.3,7.3-7.3H84.1z M141.3,155.3c0-42.1-18.9-61.8-58.7-61.8H34.7v195.3h47.9c39.8,0,58.7-19.7,58.7-62.1V155.3z"/>
    <path fill="#8E267B" d="M583,312.3c0,4.6-2.7,7.3-7.3,7.3h-20.1c-4.6,0-7.3-2.7-7.3-7.3V70.7c0-4.6,2.7-7.3,7.3-7.3h20.1
        c4.6,0,7.3,2.7,7.3,7.3V312.3z"/>
</g>
</svg>
